<svg width="1440" height="1024" viewBox="0 0 1440 1024" fill="none" xmlns="http://www.w3.org/2000/svg">
<rect width="1440" height="1024" fill="white"/>
<path d="M1133 1024C480.906 854.5 153.806 314 1.5802 0L0 1024H1133Z" fill="url(#paint0_linear_1_2)"/>
<path opacity="0.3" d="M586.783 800.087C804.678 800.087 981.316 780.017 981.316 755.261C981.316 730.504 804.678 710.435 586.783 710.435C368.889 710.435 192.251 730.504 192.251 755.261C192.251 780.017 368.889 800.087 586.783 800.087Z" fill="#E6E6E6"/>
<path d="M312.783 486.804C312.783 486.804 254.161 514.917 246.513 579.698C238.864 644.48 217.264 769.579 376.288 762.445C535.312 755.311 610.302 746.43 572.807 624.774C535.312 503.118 312.783 486.804 312.783 486.804Z" fill="#FFD200"/>
<path opacity="0.09" d="M306.779 520.454C305.135 529.596 306.273 539.022 310.044 547.509C313.816 555.995 320.048 563.152 327.931 568.049C349.506 582.293 382.741 632.906 408.476 658.499C412.493 662.486 415.666 667.242 417.806 672.484C419.946 677.725 421.01 683.345 420.933 689.007C420.933 693.622 422.802 698.736 428.881 703.725C446.769 718.367 521.834 725.676 563.813 680.626C605.792 635.575 550.434 613.274 550.434 613.274L365.924 513.27L306.779 520.454Z" fill="black"/>
<path d="M714.64 740.992C714.64 740.992 718.552 750.97 728.368 753.115C738.184 755.261 743.515 767.434 722.064 765.588C700.614 763.742 688.83 766.985 691.919 755.186C695.008 743.387 693.613 741.616 693.613 741.616L714.64 740.992Z" fill="#F4A28C"/>
<path d="M570.59 732.686C570.59 732.686 568.945 743.187 576.245 750.147C583.545 757.107 582 770.103 564.536 757.631C547.071 745.158 535.237 741.89 543.882 733.309C552.527 724.728 552.228 722.483 552.228 722.483L570.59 732.686Z" fill="#F4A28C"/>
<path d="M589.325 583.39C589.325 583.39 720.495 584.737 719.224 741.366L688.282 746.63C688.282 746.63 682.327 581.22 511.868 660.021L520.762 594.865L589.325 583.39Z" fill="#24285B"/>
<path opacity="0.09" d="M589.325 583.39C589.325 583.39 720.495 584.737 719.224 741.366L688.282 746.63C688.282 746.63 682.327 581.22 511.868 660.021L520.762 594.865L589.325 583.39Z" fill="black"/>
<path d="M599.614 439.209L610.999 442.252L602.903 433.521L599.614 439.209Z" fill="#FFD200"/>
<path d="M420.684 516.737C420.684 516.737 443.356 574.111 498.689 564.008C554.022 553.905 575.049 437.687 575.049 437.687C575.049 437.687 596.923 423.443 586.335 407.554C575.747 391.664 558.531 426.038 558.531 426.038C558.531 426.038 534.689 523.971 483.093 492.217L420.684 516.737Z" fill="#F4A28C"/>
<path opacity="0.09" d="M420.684 516.737C420.684 516.737 443.356 574.111 498.689 564.008C554.022 553.905 575.049 437.687 575.049 437.687C575.049 437.687 596.923 423.443 586.335 407.554C575.747 391.664 558.531 426.038 558.531 426.038C558.531 426.038 534.689 523.971 483.093 492.217L420.684 516.737Z" fill="black"/>
<path d="M421.382 400.195L433.34 402.689C433.34 402.689 525.77 452.928 508.579 503.242C491.389 553.556 528.934 601.326 528.934 601.326L448.563 658.001C448.563 658.001 343.576 605.841 359.297 462.158C359.297 462.158 366.597 395.231 421.382 400.195Z" fill="#68E1FD"/>
<path d="M633.79 428.599L618.634 421.303L556.416 550.861L571.571 558.158L633.79 428.599Z" fill="#E6E6E6"/>
<path opacity="0.58" d="M848.426 730.565C848.426 730.565 822.915 723.581 817.359 699.808C817.359 699.808 856.897 691.801 858.018 732.661L848.426 730.565Z" fill="#68E1FD"/>
<path opacity="0.73" d="M851.491 728.071C851.491 728.071 833.653 699.858 849.348 673.466C849.348 673.466 879.419 692.574 866.065 728.146L851.491 728.071Z" fill="#68E1FD"/>
<path d="M856.075 728.071C856.075 728.071 865.492 698.262 893.968 692.624C893.968 692.624 899.325 711.981 875.532 728.146L856.075 728.071Z" fill="#68E1FD"/>
<path d="M837.564 727.347L842.746 762.794L875.333 762.919L880.141 727.522L837.564 727.347Z" fill="#24285B"/>
<path opacity="0.66" d="M793.093 237.379H612.27V364.149H793.093V237.379Z" fill="#E6E6E6"/>
<path opacity="0.43" d="M955.331 414.962H792.022V529.459H955.331V414.962Z" fill="#E6E6E6"/>
<path d="M659.98 296.299C671.634 296.299 681.081 286.84 681.081 275.171C681.081 263.502 671.634 254.043 659.98 254.043C648.325 254.043 638.878 263.502 638.878 275.171C638.878 286.84 648.325 296.299 659.98 296.299Z" fill="#E6E6E6"/>
<path opacity="0.45" d="M766.336 257.235H706.917V339.878H766.336V257.235Z" fill="#C1C1C1"/>
<path d="M683.324 312.164H642.515V339.878H683.324V312.164Z" fill="#C1C1C1"/>
<path d="M416.997 337.084L400.355 395.829L433.34 402.689L432.219 357.19L416.997 337.084Z" fill="#F4A28C"/>
<path opacity="0.31" d="M432.892 367.143C428.889 365.579 425.426 362.884 422.926 359.385C422.926 359.385 422.079 370.535 432.892 382.933V367.143Z" fill="#CE8172"/>
<path d="M451.153 338.93C451.153 338.93 449.509 357.489 444.277 369.088C443.772 370.219 443.047 371.238 442.145 372.085C441.242 372.932 440.18 373.591 439.02 374.023C437.861 374.455 436.627 374.651 435.391 374.601C434.155 374.55 432.941 374.254 431.821 373.728C426.016 371.009 418.965 365.646 418.641 355.593L416 338.606C415.834 335.148 416.741 331.723 418.597 328.802C420.452 325.881 423.166 323.607 426.364 322.292C438.074 316.48 452.723 327.555 451.153 338.93Z" fill="#F4A28C"/>
<path d="M428.906 351.053C428.906 351.053 430.027 343.969 424.62 343.57C419.214 343.171 417.545 353.398 424.62 355.618L428.906 351.053Z" fill="#F4A28C"/>
<path d="M449.509 350.43L453.371 358.412C453.589 358.866 453.689 359.368 453.662 359.871C453.635 360.374 453.481 360.863 453.215 361.291C452.949 361.718 452.58 362.072 452.141 362.319C451.702 362.566 451.208 362.698 450.705 362.703H443.48L449.509 350.43Z" fill="#F4A28C"/>
<path d="M602.915 433.518L545.998 400.615L542.722 406.297L599.639 439.199L602.915 433.518Z" fill="#24285B"/>
<path opacity="0.18" d="M466.999 626.794L448.563 658C448.563 658 381.719 625.572 362.561 537.816C343.402 450.06 406.608 484.259 406.608 484.259L466.999 626.794Z" fill="black"/>
<path d="M448.562 658C448.562 658 510.498 531.58 602.08 532.054C693.663 532.528 574.675 736.053 574.675 736.053L544.48 723.755C544.48 723.755 589.325 636.448 577.914 608.335C566.504 580.222 549.064 774.144 448.562 658Z" fill="#24285B"/>
<path d="M395.571 407.279C395.571 407.279 423.126 393.285 437.127 421.722C451.129 450.159 440.092 572.464 496.92 578.875C553.748 585.286 582.573 526.017 582.573 526.017C582.573 526.017 587.257 501.072 595.03 496.931C602.803 492.79 609.654 519.007 595.03 534.349C595.03 534.349 569.967 628.615 490.392 630.736C410.818 632.856 317.118 471.837 395.571 407.279Z" fill="#F4A28C"/>
<path d="M451.278 314.734C451.278 314.734 469.39 336.061 445.947 340.527C422.503 344.992 417.67 349.207 419.912 372.955C422.154 396.702 431.447 418.579 400.355 433.471C369.262 448.363 395.995 473.383 390.265 502.569C384.534 531.754 357.204 551.91 322.201 532.004C287.197 512.098 265.597 461.16 303.117 430.653C340.637 400.145 387.823 392.736 387.823 343.545C387.823 294.354 427.037 291.809 451.278 314.734Z" fill="#24285B"/>
<path opacity="0.43" d="M843.917 498.877C857.869 498.877 869.179 487.552 869.179 473.583C869.179 459.613 857.869 448.289 843.917 448.289C829.965 448.289 818.655 459.613 818.655 473.583C818.655 487.552 829.965 498.877 843.917 498.877Z" fill="#C1C1C1"/>
<path opacity="0.43" d="M884.8 434.818H840.878V478.796H884.8V434.818Z" fill="#C1C1C1"/>
<path opacity="0.43" d="M931.912 434.818H899.151V507.707H931.912V434.818Z" fill="#C1C1C1"/>
<path d="M601.074 532.695L577.864 523.835L572.867 536.958L596.077 545.818L601.074 532.695Z" fill="#68E1FD"/>
<path opacity="0.44" d="M601.074 532.695L577.864 523.835L572.867 536.958L596.077 545.818L601.074 532.695Z" fill="white"/>
<defs>
<linearGradient id="paint0_linear_1_2" x1="772.189" y1="375.5" x2="35.5099" y2="1062.1" gradientUnits="userSpaceOnUse">
<stop stop-color="#00FFF0"/>
<stop offset="1" stop-color="#0085FF"/>
</linearGradient>
</defs>
</svg>
